# xmcd
#
# Track frame offsets:
#	150
#	13754
#	27628
#	40944
#	54642
#	67329
#	80529
#	93216
#	104759
#	118312
#	130925
#	144345
#
# Disc length: 2099 seconds
#
# Revision: 1
# Processed by: cddbd v1.5.2PL0 Copyright (c) Steve Scherf et al.
# Submitted via: audiograbber 1.83.01
#
DISCID=b208310c
DTITLE=B.B. King - Singin' The Blues
DYEAR=1957
DGENRE=Blues
TTITLE0=Three O'Clock Blues
TTITLE1=You Know I Love You
TTITLE2=Woke Up This Morning (My Baby's Gone)
TTITLE3=You Upset Me Baby
TTITLE4=Please Love Me
TTITLE5=Blind Love
TTITLE6=Every Day I Have The Blues
TTITLE7=Did You Ever Love A Woman
TTITLE8=Sweet Little Angel
TTITLE9=Ten Long Years
TTITLE10=Crying Won't Help You
TTITLE11=Bad Luck
EXTD=
EXTT0=
EXTT1=
EXTT2=
EXTT3=
EXTT4=
EXTT5=
EXTT6=
EXTT7=
EXTT8=
EXTT9=
EXTT10=
EXTT11=
PLAYORDER=
